<svg width="37" height="37" viewBox="0 0 37 37" fill="none" xmlns="http://www.w3.org/2000/svg">
<path opacity="0.35" fill-rule="evenodd" clip-rule="evenodd" d="M18.5 36C28.165 36 36 28.165 36 18.5C36 8.83502 28.165 1 18.5 1C8.83502 1 1 8.83502 1 18.5C1 28.165 8.83502 36 18.5 36Z" stroke="#222325" stroke-width="1.5"/>
<g clip-path="url(#clip0_6_12291)">
<path d="M23.1667 10.6667H14.8333C12.5321 10.6667 10.6667 12.5321 10.6667 14.8333V23.1667C10.6667 25.4679 12.5321 27.3333 14.8333 27.3333H23.1667C25.4679 27.3333 27.3333 25.4679 27.3333 23.1667V14.8333C27.3333 12.5321 25.4679 10.6667 23.1667 10.6667Z" stroke="#222325" stroke-width="2" stroke-linecap="round" stroke-linejoin="round"/>
<path d="M22.3333 18.475C22.4362 19.1685 22.3177 19.8768 21.9948 20.4992C21.6719 21.1215 21.161 21.6262 20.5347 21.9414C19.9084 22.2566 19.1987 22.3663 18.5065 22.2549C17.8143 22.1436 17.1748 21.8167 16.679 21.321C16.1833 20.8252 15.8564 20.1857 15.7451 19.4935C15.6337 18.8013 15.7434 18.0916 16.0586 17.4653C16.3738 16.839 16.8785 16.3281 17.5008 16.0052C18.1232 15.6823 18.8315 15.5638 19.525 15.6667C20.2324 15.7716 20.8874 16.1012 21.3931 16.6069C21.8988 17.1126 22.2284 17.7676 22.3333 18.475Z" stroke="#222325" stroke-width="2" stroke-linecap="round" stroke-linejoin="round"/>
<path fill-rule="evenodd" clip-rule="evenodd" d="M22.5833 14.4167C22.5833 13.8644 23.0311 13.4167 23.5833 13.4167H23.5917C24.144 13.4167 24.5917 13.8644 24.5917 14.4167C24.5917 14.969 24.144 15.4167 23.5917 15.4167H23.5833C23.0311 15.4167 22.5833 14.969 22.5833 14.4167Z" fill="#222325"/>
</g>
<defs>
<clipPath id="clip0_6_12291">
<rect width="20" height="20" fill="white" transform="translate(9 9)"/>
</clipPath>
</defs>
</svg>
