<svg width="37" height="37" viewBox="0 0 37 37" fill="none" xmlns="http://www.w3.org/2000/svg">
<path opacity="0.35" fill-rule="evenodd" clip-rule="evenodd" d="M18.5 36C28.165 36 36 28.165 36 18.5C36 8.83502 28.165 1 18.5 1C8.83502 1 1 8.83502 1 18.5C1 28.165 8.83502 36 18.5 36Z" stroke="#222325" stroke-width="1.5"/>
<g clip-path="url(#clip0_6_12309)">
<path d="M28.1663 11.5001C27.3683 12.063 26.4848 12.4935 25.5497 12.7751C25.0478 12.198 24.3808 11.789 23.6389 11.6034C22.897 11.4177 22.1159 11.4644 21.4014 11.7371C20.6869 12.0098 20.0734 12.4954 19.6438 13.1282C19.2143 13.7609 18.9894 14.5104 18.9997 15.2751V16.1084C17.5352 16.1464 16.0841 15.8216 14.7755 15.163C13.467 14.5043 12.3416 13.5323 11.4997 12.3334C11.4997 12.3334 8.16634 19.8334 15.6663 23.1667C13.9501 24.3317 11.9056 24.9159 9.83301 24.8334C17.333 29.0001 26.4997 24.8334 26.4997 15.2501C26.4989 15.018 26.4766 14.7864 26.433 14.5584C27.2835 13.7197 27.8837 12.6607 28.1663 11.5001V11.5001Z" stroke="#222325" stroke-width="2" stroke-linecap="round" stroke-linejoin="round"/>
</g>
<defs>
<clipPath id="clip0_6_12309">
<rect width="20" height="20" fill="white" transform="translate(9 9)"/>
</clipPath>
</defs>
</svg>
